<?xml version="1.0" encoding="UTF-8"?>
<svg id="Layer_1" xmlns="http://www.w3.org/2000/svg" xmlns:xlink="http://www.w3.org/1999/xlink" version="1.1" viewBox="0 0 320 320">
  <!-- Generator: Adobe Illustrator 29.6.1, SVG Export Plug-In . SVG Version: 2.1.1 Build 9)  -->
  <defs>
    <style>
      .st0 {
        fill: none;
      }

      .st1 {
        clip-path: url(#clippath);
      }
    </style>
    <clipPath id="clippath">
      <rect class="st0" width="320" height="320"/>
    </clipPath>
  </defs>
  <g class="st1">
    <path d="M194,182.5h-50v15h50v-15ZM104.1,137.5h90v-15h-90s0,15,0,15ZM124.1,167.5h70v-15h-70s0,15,0,15ZM211.2,128.8c2,14.1,5.2,26.7,10.2,39.5,3.1,8.1,5.1,16.6,6.3,26.8v.5c.7,4.8.9,9.8.9,14.8,0,14.5-2.4,26.8-4.3,34.6h-119.3c2.8-13.7,4.9-32.5,2.4-53.5-1.5-12.8-4.1-23.6-8.1-33.9-4.1-10.8-6.8-21.3-8.5-33.1-3.3-23.4.6-40.2,4-49.5h118.6c-3.2,12.8-5.5,31-2.2,53.8M249,75c0-8.3-6.7-15-15-15H84.9l-2.4,5.6c-4.3,9.8-10.8,30.8-6.5,61,1.8,12.9,4.8,24.4,9.3,36.3,3.5,9.2,5.8,18.8,7.2,30.4,1.7,14.1,1.1,27.1-.4,38-1.9-.9-4-1.3-6.2-1.3-8.3,0-15,6.7-15,15s6.7,15,15,15h149.6l1.9-6.8c2.2-7.8,6-23.7,6-42.8s-.3-11.1-.9-16.6v-.5c-1.5-11.5-3.8-21.1-7.3-30.4-4.5-11.8-7.5-23.3-9.3-36.3-2.2-15.5-1.6-28.6.1-38.9,2.3,1.4,5,2.3,7.9,2.3,8.4,0,15.1-6.7,15.1-15"/>
  </g>
</svg>