<?xml version="1.0" encoding="UTF-8"?>
<svg id="Layer_1" xmlns="http://www.w3.org/2000/svg" xmlns:xlink="http://www.w3.org/1999/xlink" version="1.1" viewBox="0 0 320 320">
  <!-- Generator: Adobe Illustrator 29.6.1, SVG Export Plug-In . SVG Version: 2.1.1 Build 9)  -->
  <defs>
    <style>
      .st0 {
        fill: none;
      }

      .st1 {
        clip-path: url(#clippath);
      }
    </style>
    <clipPath id="clippath">
      <rect class="st0" width="320" height="320"/>
    </clipPath>
  </defs>
  <g class="st1">
    <path d="M70,240l-20,15h220l-20-15H70ZM179.4,126.2l-11.4,12.6,31.6,28.5h.4l40.6-54.4-13.6-10.2-29.8,39.6-17.8-16.1ZM150,155h-15v15h15v-15ZM150,127.5h-15v15h15v-15ZM150,100h-15v15h15v-15ZM100,155h-15v15h15v-15ZM100,127.5h-15v15h15v-15ZM100,100h-15v15h15v-15ZM255,200.4H65v-120h190v120ZM270,213V68.9s0-4.3-4.3-4.3H54.3s-4.3,0-4.3,4.3v144.1s0,4.3,4.3,4.3h211.4s4.3,0,4.3-4.3"/>
  </g>
</svg>