<?xml version="1.0" encoding="UTF-8"?>
<svg id="cat-pg" xmlns="http://www.w3.org/2000/svg" xmlns:xlink="http://www.w3.org/1999/xlink" version="1.1" viewBox="0 0 32 32">
  <!-- Generator: Adobe Illustrator 29.7.1, SVG Export Plug-In . SVG Version: 2.1.1 Build 8)  -->
  <defs>
    <style>
      .st0 {
        fill: none;
      }

      .st1 {
        fill: #59a0a6;
      }

      .st2 {
        clip-path: url(#clippath);
      }
    </style>
    <clipPath id="clippath">
      <rect class="st0" width="32" height="32"/>
    </clipPath>
  </defs>
  <g class="st2">
    <path class="st1" d="M15,23.6l9.5-12.8-3.2-2.4-7,9.3-4.2-3.8-2.7,3,7.4,6.7s.2,0,.2,0ZM28.5,16c0,6.9-5.6,12.5-12.5,12.5S3.5,22.9,3.5,16,9.1,3.5,16,3.5s12.5,5.6,12.5,12.5M30,16c0-7.7-6.3-14-14-14S2,8.3,2,16s6.3,14,14,14,14-6.3,14-14"/>
  </g>
</svg>