<?xml version="1.0" encoding="UTF-8"?>
<svg id="Layer_1" xmlns="http://www.w3.org/2000/svg" xmlns:xlink="http://www.w3.org/1999/xlink" version="1.1" viewBox="0 0 320 320">
  <!-- Generator: Adobe Illustrator 29.6.1, SVG Export Plug-In . SVG Version: 2.1.1 Build 9)  -->
  <defs>
    <style>
      .st0 {
        fill: none;
      }

      .st1 {
        clip-path: url(#clippath);
      }
    </style>
    <clipPath id="clippath">
      <rect class="st0" width="320" height="320"/>
    </clipPath>
  </defs>
  <g class="st1">
    <path d="M107.4,193.1l8,3.9c14.5,7.2,31.3,10.9,48.7,10.9s45.2-6.6,61.5-18.5c15.7-11.4,24.3-26.4,24.3-42.1s-8.6-30.7-24.3-42.1c-16.4-12-38.2-18.5-61.5-18.5s-45.2,6.6-61.5,18.5c-15.7,11.4-24.3,26.4-24.3,42.1s4.1,20.7,11.9,30.1l5.6,6.7-9,23.5c4.5-3.1,9-6.3,13.4-9.4l7.2-5.1ZM55.1,248.2l23.4-61.2c-10-12.1-15.3-25.8-15.3-39.6,0-41.7,45.2-75.6,100.8-75.6s100.8,33.9,100.8,75.6-45.2,75.6-100.8,75.6-38.8-4.3-55.3-12.5h0c-11.2,7.9-22.4,15.7-33.5,23.6l-20.1,14.1Z"/>
  </g>
</svg>