<?xml version="1.0" encoding="UTF-8"?>
<svg id="Layer_1" xmlns="http://www.w3.org/2000/svg" xmlns:xlink="http://www.w3.org/1999/xlink" version="1.1" viewBox="0 0 320 320">
  <!-- Generator: Adobe Illustrator 29.6.1, SVG Export Plug-In . SVG Version: 2.1.1 Build 9)  -->
  <defs>
    <style>
      .st0 {
        fill: none;
      }

      .st1 {
        clip-path: url(#clippath);
      }
    </style>
    <clipPath id="clippath">
      <rect class="st0" width="320" height="320"/>
    </clipPath>
  </defs>
  <g class="st1">
    <path d="M160,72.5c16.9,0,32.7,4.8,46.1,13.1l-120.5,120.5c-8.3-13.4-13.1-29.2-13.1-46.1,0-48.3,39.2-87.5,87.5-87.5M160,247.5c-16.9,0-32.7-4.8-46.1-13.1l120.5-120.5c8.3,13.4,13.1,29.2,13.1,46.1,0,48.3-39.2,87.5-87.5,87.5M267.7,160c0-59.5-48.2-107.7-107.7-107.7s-107.7,48.2-107.7,107.7,48.2,107.7,107.7,107.7,107.7-48.2,107.7-107.7"/>
  </g>
</svg>