<?xml version="1.0" encoding="UTF-8"?>
<svg id="Layer_1" xmlns="http://www.w3.org/2000/svg" xmlns:xlink="http://www.w3.org/1999/xlink" version="1.1" viewBox="0 0 320 320">
  <!-- Generator: Adobe Illustrator 29.6.1, SVG Export Plug-In . SVG Version: 2.1.1 Build 9)  -->
  <defs>
    <style>
      .st0 {
        fill: none;
      }

      .st1 {
        clip-path: url(#clippath);
      }
    </style>
    <clipPath id="clippath">
      <rect class="st0" width="320" height="320"/>
    </clipPath>
  </defs>
  <g class="st1">
    <path d="M134.1,166.7c1.7-22.4,5.8-24.2,16.8-43.6l-37.9-2c8.9,20.5,12.8,22.7,12.2,45.2,0,2.8-1,8.2-2.2,10.7-7.2,15.4-16.8,17.9-27.6,42.9l62.7,3.3c-8.1-25.9-17.4-29.4-22.9-45.5-.9-2.8-1.3-8.3-1.1-11M178.6,92.5c-.6,10.4-9.2,20.9-17.6,31-9.3,11.2-18.9,22.9-19.6,37.1-.7,14.2,7.6,26.8,15.6,38.9,7.3,11,14.7,22.3,14.2,32.7l-89.7-4.7c.6-10.4,9.2-20.9,17.6-31.1,9.3-11.2,18.9-22.9,19.6-37.1s-7.6-26.8-15.6-39c-7.3-11-14.7-22.3-14.2-32.7l89.7,4.9ZM204.1,83.8s.3-5-4.7-5.3l-129.9-6.8s-5-.3-5.3,4.7l-.3,5s-.3,5,4.7,5.3l5.1.3c-.8,15.3,8.5,29.4,16.7,41.8,7,10.6,13.6,20.6,13.1,29.9-.5,9.3-8.1,18.5-16.2,28.3-9.5,11.5-20.1,24.5-21,39.8l-5.1-.3s-5-.3-5.3,4.7l-.3,5s-.3,5,4.7,5.3l129.8,6.8s5,.3,5.3-4.7l.3-5s.3-5-4.7-5.3l-5-.3c.8-15.3-8.5-29.4-16.7-41.8-7-10.6-13.6-20.6-13.1-29.9.5-9.3,8.1-18.5,16.2-28.3,9.5-11.5,20.1-24.5,21-39.8l5,.3s5,.3,5.3-4.7l.4-5ZM259.9,108.7l-12.9,7.6c4.9,8.4,15.8,33.6,7.4,49.3-4.2,7.9-13.1,13.1-26.5,15.5l-1.6-25.5-34.1,35.8,38.2,31.4-1.6-26.6c19.1-3.1,32.1-11,38.8-23.5,14-26.5-6.8-62.5-7.7-64"/>
  </g>
</svg>