<?xml version="1.0" encoding="UTF-8"?>
<svg id="Layer_1" xmlns="http://www.w3.org/2000/svg" xmlns:xlink="http://www.w3.org/1999/xlink" version="1.1" viewBox="0 0 320 320">
  <!-- Generator: Adobe Illustrator 29.6.1, SVG Export Plug-In . SVG Version: 2.1.1 Build 9)  -->
  <defs>
    <style>
      .st0 {
        fill: none;
      }

      .st1 {
        clip-path: url(#clippath-1);
      }

      .st2 {
        clip-path: url(#clippath);
      }
    </style>
    <clipPath id="clippath">
      <rect class="st0" x="50.2" y="31.6" width="219.5" height="256.9"/>
    </clipPath>
    <clipPath id="clippath-1">
      <rect class="st0" x="50.2" y="31.6" width="219.5" height="256.9"/>
    </clipPath>
  </defs>
  <g>
    <g class="st2">
      <path d="M122.8,255.6c2.4,18.5,18.1,32.9,37.2,32.9s34.8-14.3,37.2-32.9c-12.3.7-62.1.7-74.4,0"/>
    </g>
    <g class="st1">
      <path d="M65.4,226.8c32.9,4.1,156.3,4.1,189.2,0,.4-7.4-.1-18.1-1.1-27.3-10.9-8.1-29.9-26.6-29.9-56.4s-.6-37.9-1.1-43.8c-.1-.3-.1-.6-.2-.9-6-29.6-32.2-51.3-62.4-51.7-30.1.4-56.2,22.2-62.2,51.7l-.2,1c-.5,5.9-1.1,28.1-1.1,43.8,0,29.8-19.1,48.3-29.9,56.4-1,9-1.6,19.8-1.1,27.2M160,244.8c-45.3,0-90.5-1.4-103-4.2l-4.8-1.1-.9-4.8c-2.4-12.2,0-35.7.7-40.3l.4-3.4,2.8-1.9c7.9-5.3,26.2-20.5,26.2-46s.6-39.4,1.2-45.6l.2-1,.3-1.3c7.4-36.4,39.7-63.2,76.8-63.6h.2c37.2.5,69.6,27.3,77,63.7.1.4.2.9.3,1.4v.8c.7,6.3,1.3,29.8,1.3,45.6,0,25.5,18.4,40.7,26.2,46l2.8,1.9.4,3.4c.5,4.6,3.1,28,.6,40.3l-.9,4.8-4.8,1.1c-12.5,2.8-57.7,4.2-103,4.2"/>
    </g>
  </g>
  <rect class="st0" width="320" height="320"/>
</svg>