<?xml version="1.0" encoding="UTF-8"?>
<svg id="Layer_1" xmlns="http://www.w3.org/2000/svg" xmlns:xlink="http://www.w3.org/1999/xlink" version="1.1" viewBox="0 0 320 320">
  <!-- Generator: Adobe Illustrator 29.6.1, SVG Export Plug-In . SVG Version: 2.1.1 Build 9)  -->
  <defs>
    <style>
      .st0 {
        fill: none;
      }

      .st1 {
        clip-path: url(#clippath);
      }
    </style>
    <clipPath id="clippath">
      <rect class="st0" x="30" y="62.5" width="260" height="195"/>
    </clipPath>
  </defs>
  <g class="st1">
    <path d="M245,187.5H75v-110h170v110ZM260,197.5V67.5c0-2.8-2.2-5-5-5H65c-2.8,0-5,2.2-5,5v130c0,2.8,2.2,5,5,5h190c2.8,0,5-2.3,5-5"/>
  </g>
  <polygon points="69 217.5 30 257.5 290 257.5 251 217.5 69 217.5"/>
  <polygon points="161.2 172.5 161.2 124.2 151 117.4 131.9 143.7 114.8 134.5 90.4 167.8 90.4 172.5 161.2 172.5"/>
  <rect x="174.6" y="97.5" width="55" height="15"/>
  <rect x="174.6" y="127.5" width="45" height="15"/>
  <rect x="174.6" y="157.5" width="55" height="15"/>
  <rect class="st0" width="320" height="320"/>
</svg>