<?xml version="1.0" encoding="UTF-8"?>
<svg id="Layer_1" xmlns="http://www.w3.org/2000/svg" xmlns:xlink="http://www.w3.org/1999/xlink" version="1.1" viewBox="0 0 320 320">
  <!-- Generator: Adobe Illustrator 29.6.1, SVG Export Plug-In . SVG Version: 2.1.1 Build 9)  -->
  <defs>
    <style>
      .st0 {
        fill: none;
      }

      .st1 {
        clip-path: url(#clippath);
      }
    </style>
    <clipPath id="clippath">
      <rect class="st0" x="74.4" y="55.8" width="171.2" height="208.4"/>
    </clipPath>
  </defs>
  <g class="st1">
    <path d="M215.1,125.9c0-4.2.1-8.4.2-12.7-14.3-4.9-37.3-13.2-55.3-22.5-15,85.3-.6,139.3,0,139.5.4-.2.7-.3,1.1-.5l.7-.3c6.8-3.1,14.5-6.6,26-11.2,24.2-9.8,26.4-23.9,27.2-91.9v-.4ZM230.4,102.6c-.2,8.2-.2,15.9-.3,23.5v.3c-.7,64.6-1.1,91.3-36.6,105.7-11.2,4.5-18.7,7.9-25.3,11-2.4,1.1-4.8,2.2-7.2,3.3l-.9.4h0l-.9-.4c-2.4-1.1-4.8-2.1-7.2-3.3-6.6-3-14.1-6.5-25.3-10.9-35.7-14.5-36-41.2-36.8-105.9,0-7.6-.2-15.4-.3-23.7.5-.2,1.1-.4,1.7-.6,18.6-6.4,48.9-16.8,68.7-28.5,19.8,11.7,50.1,22.1,68.7,28.5.6.2,1.1.4,1.7.6M245.6,92l-5.1-1.8c-1.9-.7-4.3-1.5-6.9-2.4-19.3-6.6-51.5-17.7-69.5-29.4l-4.1-2.7-4.1,2.7c-18,11.7-50.2,22.8-69.5,29.4-2.6.9-4.9,1.7-6.9,2.4l-5.1,1.8v5.4c.3,10.3.4,19.8.5,29.1.4,33.8.7,58.2,6.2,77,6,20.6,18.3,33.7,39.9,42.4,10.8,4.3,18.2,7.7,24.6,10.6,2.5,1.1,4.9,2.2,7.4,3.3l7,4.2,6.6-4,.4-.2c2.5-1.1,4.9-2.2,7.4-3.3,6.4-3,13.8-6.3,24.7-10.7,21.5-8.7,33.8-21.8,39.9-42.4,5.5-18.8,5.8-43.2,6.2-77v-.3c.1-9.2.2-18.6.4-28.8v-5.3Z"/>
  </g>
  <rect class="st0" width="320" height="320"/>
</svg>