<?xml version="1.0" encoding="UTF-8"?>
<svg id="cat-pg" xmlns="http://www.w3.org/2000/svg" version="1.1" viewBox="0 0 32 32">
  <!-- Generator: Adobe Illustrator 29.7.1, SVG Export Plug-In . SVG Version: 2.1.1 Build 8)  -->
  <defs>
    <style>
      .st0 {
        fill: #59a0a6;
      }
    </style>
  </defs>
  <path class="st0" d="M24,25.8c-1.1.8-2.2,1.5-3.5,2l.5,1.4c1.4-.5,2.7-1.3,3.9-2.2l-1-1.2h.1ZM15,23.7l9.6-12.9-3.2-2.4-7.1,9.4-4.2-3.8-2.7,3,7.5,6.8h.1ZM14,28.5l-.2,1.5c.7.1,1.5.2,2.2.2s1.5,0,2.2-.2l-.2-1.5c-1.3.2-2.7.2-4,0M4.2,20.5l-1.4.5c.5,1.4,1.3,2.7,2.2,3.9l1.2-1c-.8-1.1-1.5-2.2-2-3.5M3.5,14l-1.5-.2c-.1.7-.2,1.5-.2,2.2s0,1.5.2,2.2l1.5-.2c0-.7-.2-1.3-.2-2s0-1.3.2-2M4.2,11.5c.5-1.3,1.2-2.4,2-3.5l-1.2-1c-.9,1.2-1.7,2.5-2.2,3.9l1.4.5h0ZM8,25.8l-1,1.2c1.2.9,2.5,1.7,3.9,2.2l.5-1.4c-1.3-.5-2.4-1.2-3.5-2M8,6.2c1.1-.8,2.2-1.5,3.5-2l-.5-1.4c-1.4.5-2.7,1.3-3.9,2.2l1,1.2h-.1ZM18,3.5l.2-1.5c-1.5-.2-3-.2-4.5,0l.2,1.5c1.3-.2,2.7-.2,4,0M24,6.2l1-1.2c-1.2-.9-2.5-1.7-3.9-2.2l-.5,1.4c1.3.5,2.4,1.2,3.5,2M27.8,20.5c-.5,1.3-1.2,2.4-2,3.5l1.2,1c.9-1.2,1.7-2.5,2.2-3.9l-1.4-.5h0ZM27.8,11.5l1.4-.5c-.5-1.4-1.3-2.7-2.2-3.9l-1.2,1c.8,1.1,1.5,2.2,2,3.5M30.1,16c0-.7,0-1.5-.2-2.2l-1.5.2c.1.7.2,1.3.2,2s0,1.3-.2,2l1.5.2c.1-.7.2-1.5.2-2.2"/>
</svg>