<?xml version="1.0" encoding="UTF-8"?>
<svg id="Layer_1" xmlns="http://www.w3.org/2000/svg" xmlns:xlink="http://www.w3.org/1999/xlink" version="1.1" viewBox="0 0 320 320">
  <!-- Generator: Adobe Illustrator 29.6.1, SVG Export Plug-In . SVG Version: 2.1.1 Build 9)  -->
  <defs>
    <style>
      .st0 {
        fill: none;
      }

      .st1 {
        clip-path: url(#clippath-1);
      }

      .st2 {
        clip-path: url(#clippath);
      }
    </style>
    <clipPath id="clippath">
      <rect class="st0" x="40" y="40" width="240" height="240"/>
    </clipPath>
    <clipPath id="clippath-1">
      <rect class="st0" x="40" y="40" width="240" height="240"/>
    </clipPath>
  </defs>
  <g>
    <g class="st2">
      <path d="M262.7,234.8c7-8.5,11.3-18.5,11.3-29.3,0-30.9-33.4-55.9-74.5-55.9s-74.5,25-74.5,55.9,33.4,55.9,74.5,55.9,29.1-3.4,40.9-9.2l39.6,27.8-17.3-45.2Z"/>
    </g>
    <g class="st1">
      <path d="M235.1,140.6c3.8-7.9,5.9-16.4,5.9-25.2,0-41.6-45.1-75.4-100.5-75.4S40,73.8,40,115.4s4.1,25,12.3,36.1h0l-12.3,49.3,36.4-27.3h0c10.8,6.7,23.4,11.3,36.8,14.2,1.6-4.9,3.9-9.5,6.8-14-13-2.3-25.3-6.6-35.6-13l-8.8-5.4-10.7,8,3.7-14.9-4.2-5.7c-6.2-8.5-9.4-17.7-9.4-27.3,0-33.2,38.3-60.3,85.4-60.3s85.4,27,85.4,60.3-2.2,14.7-5.8,21.4c5.2.9,10.3,2.1,15.1,3.8"/>
    </g>
  </g>
  <rect class="st0" width="320" height="320"/>
</svg>