<?xml version="1.0" encoding="UTF-8"?>
<svg id="Layer_1" xmlns="http://www.w3.org/2000/svg" xmlns:xlink="http://www.w3.org/1999/xlink" version="1.1" viewBox="0 0 320 320">
  <!-- Generator: Adobe Illustrator 29.6.1, SVG Export Plug-In . SVG Version: 2.1.1 Build 9)  -->
  <defs>
    <style>
      .st0 {
        fill: none;
      }

      .st1 {
        clip-path: url(#clippath);
      }
    </style>
    <clipPath id="clippath">
      <rect class="st0" width="320" height="320"/>
    </clipPath>
  </defs>
  <g class="st1">
    <path d="M115.9,165c0,7.3-3.5,13.5-8.5,17.7-11.8-7.3-42.8-12.5-42.8-27.9s4.3-14.4,8.5-17.5c19.1,9.2,42.8,11.1,42.8,27.7M140.5,160c0-43.3-69.5-34.8-68.6-59.3,0-12.8,10.9-16.1,22.7-16.1s23.2,1.9,33.8,5.9l2.6-25.7c-12.5-2.4-25-4.8-37.8-4.8-24.6,0-51.5,12.5-51.5,40.4s5.9,20.8,16.5,28.1c-11.6,6.9-18.2,17.1-18.2,32,0,41.4,68.8,34.5,68.8,58.6s-10.9,16.3-23.9,16.3-27.7-4.3-39.7-9.2l-2.1,26.9c14.4,3.5,28.8,6.8,43.7,6.8,25.5,0,52.2-14.6,52.2-42.8s-5.9-21-16.1-27c11.2-6,17.6-17.6,17.6-30.1M212.6,137.3c19.2,9.2,42.8,11.1,42.8,27.7s-3.5,13.5-8.5,17.7c-11.8-7.3-42.8-12.5-42.8-27.9s4.3-14.4,8.5-17.5M211.4,100.6c0-12.8,10.9-16.1,22.7-16.1s23.2,1.9,33.8,5.9l2.6-25.7c-12.5-2.3-25-4.7-37.8-4.7-24.6,0-51.5,12.5-51.5,40.4s5.9,20.8,16.5,28.1c-11.6,6.9-18.2,17.1-18.2,31.9,0,41.4,68.8,34.5,68.8,58.6s-10.9,16.3-23.9,16.3-27.7-4.3-39.7-9.2l-2.1,26.9c14.4,3.5,28.8,6.8,43.7,6.8,25.5,0,52.2-14.6,52.2-42.8s-5.9-21-16.1-27c11.1-6.2,17.5-17.8,17.5-30.3.1-43-69.4-34.5-68.5-59.1"/>
  </g>
</svg>