<?xml version="1.0" encoding="UTF-8"?>
<svg id="Layer_1" xmlns="http://www.w3.org/2000/svg" xmlns:xlink="http://www.w3.org/1999/xlink" version="1.1" viewBox="0 0 320 320">
  <!-- Generator: Adobe Illustrator 29.6.1, SVG Export Plug-In . SVG Version: 2.1.1 Build 9)  -->
  <defs>
    <style>
      .st0 {
        fill: none;
      }

      .st1 {
        clip-path: url(#clippath);
      }
    </style>
    <clipPath id="clippath">
      <rect class="st0" width="320" height="320"/>
    </clipPath>
  </defs>
  <g class="st1">
    <path d="M250,270c0,2.8-2.2,5-5,5H75c-2.8,0-5-2.2-5-5V60c0-2.8,2.2-5,5-5h24.8v15h-15v190h150V70h-15v-15h25.2c2.8,0,5,2.2,5,5v210ZM212.8,132.9l-40.6,54.4h-.4l-31.6-28.5,11.4-12.7,17.8,16.1,29.8-39.6,13.6,10.3ZM204.8,80h-90v-30h22.7v-1c0-7.7,6.3-14,14-14h17c7.7,0,14,6.3,14,14v1h22.3v30ZM107.2,120h15v15h-15v-15ZM122.2,190h-15v-15h15v15ZM107.2,147.5h15v15h-15v-15Z"/>
  </g>
</svg>