<?xml version="1.0" encoding="UTF-8"?>
<svg id="Layer_1" xmlns="http://www.w3.org/2000/svg" xmlns:xlink="http://www.w3.org/1999/xlink" version="1.1" viewBox="0 0 320 320">
  <!-- Generator: Adobe Illustrator 29.6.1, SVG Export Plug-In . SVG Version: 2.1.1 Build 9)  -->
  <defs>
    <style>
      .st0 {
        fill: none;
      }

      .st1 {
        clip-path: url(#clippath);
      }
    </style>
    <clipPath id="clippath">
      <rect class="st0" width="320" height="320"/>
    </clipPath>
  </defs>
  <g class="st1">
    <path d="M236.4,210.9l-50.9-50.9,50.9-50.9-25.5-25.5-50.9,50.9-50.9-50.9-25.5,25.5,50.9,50.9-50.9,50.9,25.5,25.5,50.9-50.9,50.9,50.9,25.5-25.5ZM265,260c0,2.8-2.2,5-5,5H60c-2.8,0-5-2.2-5-5V60c0-2.8,2.2-5,5-5h200c2.8,0,5,2.2,5,5v200ZM280,260V60c0-11-9-20-20-20H60c-11,0-20,9-20,20v200c0,11,9,20,20,20h200c11,0,20-9,20-20"/>
  </g>
</svg>