<?xml version="1.0" encoding="UTF-8"?>
<svg id="Layer_1" xmlns="http://www.w3.org/2000/svg" xmlns:xlink="http://www.w3.org/1999/xlink" version="1.1" viewBox="0 0 320 320">
  <!-- Generator: Adobe Illustrator 29.6.1, SVG Export Plug-In . SVG Version: 2.1.1 Build 9)  -->
  <defs>
    <style>
      .st0 {
        fill: none;
      }

      .st1 {
        clip-path: url(#clippath);
      }
    </style>
    <clipPath id="clippath">
      <rect class="st0" width="320" height="320"/>
    </clipPath>
  </defs>
  <g class="st1">
    <path d="M229.1,257.9h-33.6v30.1h33.6v-30.1ZM245.4,85.3c3.2-3.4,4.8-8.1,4.5-13.3-.6-8.5-6.1-17.5-15.1-24.7-13.8-11-31.4-12.4-39.4-3.2-2.8,3.2-3.7,8.2-4.8,13.9-.6,3.1-1.7,9.2-3.1,11.3-.4-.2-1.1-.5-2-1-2.6-3.2-11.4-14.4-16.7-21l-1.1-1.4c-5.9-7.5-12.5-15.9-24.7-15.9s-3.7.7-5,1.9l-17.2,15.5c-3.1,2.4-20.4,16.9-17.9,34.9,1.1,7.8,8.9,9.9,15.9,11.8,4,1.1,9.4,2.5,11.2,4.6,1.4,1.6,2.1,3.9,1.9,6.6-.4,5-3.8,10.5-9.3,14.9-10.3,8.4-21.6,6.3-23.7,4.1-.9-1.1-1.9-5.6-2.6-8.5-1.7-7.3-3.6-15.6-9.9-20.5-12.3-9.6-25.7,3.9-30.1,8.4l-.5.5c-3.9,3.9-15.9,18.5-20.4,27.2-3.7,7.1,0,14.9,11.4,23.2,5.4,4,11.2,7.2,12.8,8.1,5.3,3.7,10.5,8.6,12.3,11.5-1.6,1.1-4.1,2.1-6.7,3.1-4.7,1.8-10.1,3.8-14.4,8.2-10.5,10.6-4.1,31.7,1.5,40.1,7.5,11.3,29.7,13.2,40.8,6.4,11.4-7,12.5-17.2,13.1-23.3,0-1,.2-2.3.4-3,.3-.2.4-.3.4-.3,0,0,1.2.2,3.4,2.4,5.2,5.2,19.1,20.4,21.1,22.6,4.6,6.1,10,9.1,15.8,9.1s2.5-.1,3.8-.4c5.8-1.2,11.2-5.1,17.4-9.5l.3-.2c13.6-9.7,21.6-27,17.6-37.7-2.7-7.1-10.5-9-17.4-10.6-4.5-1.1-9.5-2.3-11.7-4.4-.3-.3-.6-1.1-.6-2.6,0-2.4.8-5.4,1.9-8.4l-10.4-12.9c-3.7,6.5-6.5,14.5-6.5,21.3s2.7,11,5,13.2c5.2,5.1,12.7,6.9,18.8,8.4,2.2.5,5.5,1.3,6.9,2,.2,3.3-3.2,13-12.4,19.5l-.3.2c-12.7,9-13,8.5-16.6,3.7-.1-.2-.3-.4-.5-.6-.6-.7-15.9-17.5-21.8-23.3-4.9-4.9-9.7-6.7-14-6.7s-8.6,2.1-11.6,5.1c-3.4,3.4-3.8,7.8-4.2,11.7-.6,5.5-1.2,9.1-6,12.1-5.2,3.2-18.2,1.5-20.5-1.9-4.2-6.3-6.1-18.4-3.3-21.2,2-2,5.4-3.4,9.1-4.7,5.1-1.9,10.9-4.1,14.7-9.3,1.9-2.5,2.6-5.7,2.1-8.9-1.5-9.3-14.2-19.1-19.5-22.9-.3-.2-.5-.3-.8-.5-7.6-4-15.4-9.8-17.6-12.8,4.3-7.4,14.3-19.4,16.9-22.1l.6-.6c7.3-7.4,9.7-7.3,10.1-7.2,0,0,0,0,.2,0,2.1,1.6,3.5,7.7,4.5,12.1,1.4,5.9,2.6,11.4,6.1,15.2,8.3,9.1,28.5,10.3,44.2-2.5,8.8-7.1,14-16.1,14.8-25.4.6-6.8-1.4-13.1-5.6-17.7-4.8-5.4-12.4-7.5-18.5-9.1-1.5-.4-3.6-1-5-1.5.4-8,9-16.3,12.5-19.1.2,0,.3-.3.5-.4l14.8-13.4c3.4,1.1,6.2,4.5,10.4,9.8l1.1,1.5c6.2,7.9,17.4,22,17.4,22,.4.6,1,1,1.5,1.4,6.2,4.4,12,5.6,17.1,3.6,8.6-3.4,10.6-14.1,12.2-22.8.4-2.3,1.1-5.8,1.6-7.1,1.7-1.3,10-1.5,18.4,5.3,6.7,5.4,9.3,10.7,9.5,14,.1,1.2-.2,1.7-.3,1.9-2.9,3.1-5.5,3.9-9.1,5-4.9,1.5-11.1,3.4-16.5,11.2-1.1,1.7-1.9,3.4-2.3,5.2l15.5,2.2c2.1-2.6,4.2-3.2,7.7-4.3,4.8-1.6,10.3-3.3,15.9-9.2M270,159.7c0-29.9-28.6-41.7-55-41.7s-28.9,3-42.9,7.3l1.5,26.1c10.8-4,22.6-7,34.1-7s26.4,5.8,26.4,20.1c0,28.4-36.7,28.4-36.7,72.1v3.3h29.6v-3.9c.1-35.1,43-38.6,43-76.3"/>
  </g>
</svg>